<svg width="18" height="18" viewBox="0 0 18 18" fill="none" xmlns="http://www.w3.org/2000/svg">
<path d="M15 3C17.07 5.04 17.85 7.89 17.36 10.55C17.77 11.27 18 12.11 18 13C18 14.3261 17.4732 15.5979 16.5355 16.5355C15.5979 17.4732 14.3261 18 13 18C12.11 18 11.27 17.77 10.55 17.36C7.89 17.85 5.04 17.07 3 15C0.93 12.96 0.15 10.11 0.64 7.45C0.23 6.73 0 5.89 0 5C0 3.67392 0.526784 2.40215 1.46447 1.46447C2.40215 0.526784 3.67392 0 5 0C5.89 0 6.73 0.23 7.45 0.64C10.11 0.15 12.96 0.93 15 3ZM9.04 14.16C11.91 14.16 13.34 12.78 13.34 10.92C13.34 9.73 12.78 8.46 10.61 7.97L8.62 7.53C7.86 7.36 7 7.13 7 6.42C7 5.7 7.6 5.2 8.7 5.2C10.93 5.2 10.72 6.73 11.83 6.73C12.41 6.73 12.91 6.39 12.91 5.8C12.91 4.43 10.72 3.4 8.86 3.4C6.85 3.4 4.7 4.26 4.7 6.54C4.7 7.64 5.09 8.81 7.25 9.35L9.94 10.03C10.75 10.23 10.95 10.68 10.95 11.1C10.95 11.78 10.27 12.45 9.04 12.45C6.63 12.45 6.96 10.6 5.67 10.6C5.09 10.6 4.67 11 4.67 11.57C4.67 12.68 6 14.16 9.04 14.16Z" fill="url(#paint0_linear_113_153)"/>
<defs>
<linearGradient id="paint0_linear_113_153" x1="-7.09151e-08" y1="0.616438" x2="20.5305" y2="4.45082" gradientUnits="userSpaceOnUse">
<stop stop-color="#004C3B"/>
<stop offset="1" stop-color="#008F70"/>
</linearGradient>
</defs>
</svg>
